<svg width="512" height="512" viewBox="0 0 512 512" fill="none" xmlns="http://www.w3.org/2000/svg">
    <path d="M196.924 34.108c36.556-21.106 81.596-21.106 118.153 0l99.525 57.46c40.241 0 72.862 32.623 72.862 72.863 0 13.279-3.554 25.728-9.76 36.449v114.904c0 42.212-22.52 81.217-59.077 102.323l-99.509 57.452C306.521 497.343 282.973 512 256 512c-26.973-.001-50.523-14.657-63.119-36.441l-99.506-57.452c-36.557-21.106-59.077-60.111-59.077-102.323V200.883c-6.208-10.722-9.762-23.171-9.762-36.452 0-40.24 32.621-72.862 72.861-72.862h.001zm217.678 94.877c-19.576 0-35.446 15.87-35.446 35.446q.002 1.125.072 2.232l-78.266 45.186c-11.434-11.643-27.355-18.864-44.962-18.864s-33.529 7.221-44.963 18.864l-78.266-45.186a37 37 0 0 0 .073-2.232c0-19.576-15.87-35.446-35.447-35.446-19.576 0-35.446 15.87-35.446 35.446s15.87 35.445 35.446 35.445a35.3 35.3 0 0 0 19.623-5.924l78.248 45.176A63 63 0 0 0 192.984 256c0 29.362 20.083 54.034 47.262 61.03v90.349c-11.671 5.801-19.692 17.842-19.693 31.759 0 19.577 15.87 35.446 35.447 35.446 19.576 0 35.446-15.869 35.446-35.446 0-13.917-8.022-25.958-19.692-31.759V317.03c27.179-6.996 47.261-31.668 47.261-61.03a63 63 0 0 0-2.285-16.872l78.248-45.176a35.3 35.3 0 0 0 19.624 5.924c19.577 0 35.446-15.869 35.447-35.445 0-19.576-15.87-35.446-35.447-35.446M78.769 315.123a74.73 74.73 0 0 0 37.388 64.725l69.528 40.124a72.6 72.6 0 0 1 12.012-24.54l-60.177-34.724a62.93 62.93 0 0 1-31.484-54.506v-69.416a74 74 0 0 1-8.639.506 73 73 0 0 1-18.628-2.403zm354.461-80.234a73 73 0 0 1-18.628 2.403 74 74 0 0 1-8.637-.506v69.416a62.93 62.93 0 0 1-31.485 54.506l-60.178 34.724a72.6 72.6 0 0 1 12.012 24.54l69.529-40.124c23.134-13.35 37.387-38.024 37.387-64.725zM293.387 73.029a74.8 74.8 0 0 0-74.775 0l-69.481 40.095a73 73 0 0 1 15.277 22.652l60.107-34.686a63 63 0 0 1 62.969 0l60.108 34.686a73 73 0 0 1 15.277-22.652z" fill="#3dc4e0"/>
</svg>
